<?xml version="1.0" encoding="UTF-8" standalone="no"?>
<!-- Created with Inkscape (http://www.inkscape.org/) -->

<svg
   xmlns:osb="http://www.openswatchbook.org/uri/2009/osb"
   xmlns:dc="http://purl.org/dc/elements/1.1/"
   xmlns:cc="http://creativecommons.org/ns#"
   xmlns:rdf="http://www.w3.org/1999/02/22-rdf-syntax-ns#"
   xmlns:svg="http://www.w3.org/2000/svg"
   xmlns="http://www.w3.org/2000/svg"
   xmlns:sodipodi="http://sodipodi.sourceforge.net/DTD/sodipodi-0.dtd"
   xmlns:inkscape="http://www.inkscape.org/namespaces/inkscape"
   width="210mm"
   height="297mm"
   viewBox="0 0 210 297"
   version="1.1"
   id="svg8"
   sodipodi:docname="Lasota_logo.svg"
   inkscape:version="0.92.3 (2405546, 2018-03-11)">
  <defs
     id="defs2">
    <linearGradient
       id="linearGradient895"
       osb:paint="solid">
      <stop
         style="stop-color:#000000;stop-opacity:1;"
         offset="0"
         id="stop893" />
    </linearGradient>
  </defs>
  <sodipodi:namedview
     id="base"
     pagecolor="#ffffff"
     bordercolor="#666666"
     borderopacity="1.0"
     inkscape:pageopacity="0.0"
     inkscape:pageshadow="2"
     inkscape:zoom="0.49497475"
     inkscape:cx="381.61091"
     inkscape:cy="634.79582"
     inkscape:document-units="mm"
     inkscape:current-layer="layer1"
     showgrid="false"
     inkscape:window-width="1853"
     inkscape:window-height="1021"
     inkscape:window-x="67"
     inkscape:window-y="27"
     inkscape:window-maximized="1"
     showguides="false" />
  <metadata
     id="metadata5">
    <rdf:RDF>
      <cc:Work
         rdf:about="">
        <dc:format>image/svg+xml</dc:format>
        <dc:type
           rdf:resource="http://purl.org/dc/dcmitype/StillImage" />
      </cc:Work>
    </rdf:RDF>
  </metadata>
  <g
     inkscape:label="Layer 1"
     inkscape:groupmode="layer"
     id="layer1">
    <path
       style="fill:#000bff;fill-opacity:1;stroke:none;stroke-width:35.84503937;stroke-linejoin:miter;stroke-miterlimit:4;stroke-dasharray:none;stroke-opacity:1"
       d="M 394.28516,153.94922 A 328.57143,314.28572 0 0 0 67.277344,438.35352 c 24.491388,-24.4307 47.729166,-43.29798 69.703126,-56.55079 34.86922,-21.40811 71.09451,-32.11132 108.67578,-32.11132 42.61794,0 92.40436,18.34921 149.35742,55.04882 l 8.7168,5.50391 c 3.09949,1.83498 7.36105,4.28154 12.78515,7.33984 60.05256,37.92294 108.28807,56.88477 144.70704,56.88477 33.31948,0 66.25226,-11.62019 98.79687,-34.86328 C 676.77521,427.77949 694.43898,412.29137 713,393.18164 A 328.57143,314.28572 0 0 0 394.28516,153.94922 Z"
       transform="scale(0.26458333)"
       id="path887" />
    <path
       style="fill:#000bff;fill-opacity:1;stroke:none;stroke-width:35.84503937;stroke-linejoin:miter;stroke-miterlimit:4;stroke-dasharray:none;stroke-opacity:1"
       d="m 232.29102,501.99414 c -34.09436,0 -67.80162,11.9265 -101.1211,35.78125 -14.60482,10.18807 -29.65621,23.02359 -45.154295,38.5 A 328.57143,314.28572 0 0 0 394.28516,782.51953 328.57143,314.28572 0 0 0 710.26758,553.29492 c -18.82695,17.20754 -36.9337,30.99797 -54.31641,41.36524 -34.48178,20.79645 -70.51247,31.19531 -108.09375,31.19531 -42.61794,0 -92.20976,-18.04486 -148.77539,-54.13281 -4.26179,-2.44664 -7.36165,-4.28059 -9.29883,-5.50391 -2.71205,-1.83498 -6.97362,-4.28154 -12.78515,-7.33984 C 316.9455,520.95597 268.70998,501.99414 232.29102,501.99414 Z"
       transform="scale(0.26458333)"
       id="path850" />
    <g
       aria-label="~"
       transform="matrix(7.8726956,0,0,12.428937,-904.84436,-11819.434)"
       style="font-style:normal;font-weight:normal;font-size:40px;line-height:1.25;font-family:sans-serif;letter-spacing:0px;word-spacing:0px;fill:none;fill-opacity:1;stroke:#000000;stroke-width:0.10109304;stroke-miterlimit:4;stroke-dasharray:none;stroke-opacity:1"
       id="flowRoot852-3" />
    <path
       style="fill:#0000ff;fill-opacity:1;stroke:none;stroke-width:102.41439819;stroke-linejoin:miter;stroke-miterlimit:4;stroke-dasharray:none;stroke-opacity:1"
       d="m 538.28534,471.04894 c -34.00263,-6.7632 -67.1746,-22.0618 -129.99963,-59.95468 -52.0338,-31.38414 -70.60838,-40.71896 -103.64997,-52.09015 -23.54495,-8.10295 -29.84781,-9.07612 -59.20717,-9.14168 -26.50435,-0.0592 -36.98633,1.21095 -54.21365,6.56925 -36.40954,11.32464 -65.87301,28.67733 -103.1138,60.72949 l -19.707472,16.9617 1.624972,-9.37302 C 81.607853,357.90182 111.09669,299.76218 156.78135,253.69009 220.14204,189.79206 301.70013,156.31279 394,156.31279 c 91.52803,0 170.954,32.08674 234.48797,94.72915 35.8146,35.31203 59.2574,71.9172 75.60186,118.04979 l 7.89586,22.28632 -9.70712,10.22443 c -48.98497,51.59538 -114.42223,79.30621 -163.99323,69.44646 z"
       id="path889"
       inkscape:connector-curvature="0"
       transform="scale(0.26458333)" />
    <path
       style="fill:#000080;fill-opacity:1;stroke:none;stroke-width:102.41439819;stroke-linejoin:miter;stroke-miterlimit:4;stroke-dasharray:none;stroke-opacity:1"
       d="M 362.57143,779.26206 C 245.739,769.87198 140.02602,695.13537 92.754502,588.50782 l -5.57859,-12.5833 14.126328,-12.54963 c 28.57771,-25.38803 62.58365,-45.73711 91.05959,-54.48986 8.16317,-2.50914 25.1043,-4.48827 38.78103,-4.53054 38.80784,-0.11995 74.59327,13.623 146.40414,56.22471 78.33657,46.47309 108.12311,59.28845 149.98614,64.52998 54.50789,6.82477 114.8256,-13.1737 164.0588,-54.39406 7.67083,-6.42238 13.82109,-9.87465 13.80175,-7.7472 -0.0743,8.16274 -19.65432,48.19875 -35.34392,72.26875 -64.59417,99.09618 -182.03703,154.10739 -307.47834,144.02539 z"
       id="path891"
       inkscape:connector-curvature="0"
       transform="scale(0.26458333)" />
    <g
       aria-label="~"
       transform="matrix(7.8726956,0,0,12.428937,-905.46521,-11819.605)"
       style="font-style:normal;font-weight:normal;font-size:40px;line-height:1.25;font-family:sans-serif;letter-spacing:0px;word-spacing:0px;fill:none;fill-opacity:1;stroke:#000000;stroke-width:0.10109304;stroke-miterlimit:4;stroke-dasharray:none;stroke-opacity:1"
       id="flowRoot852">
      <path
         d="m 140.70508,971.14453 c -1.36719,1.02865 -2.63672,1.76432 -3.8086,2.20703 -1.15885,0.44271 -2.36979,0.66406 -3.63281,0.66406 -1.43229,0 -3.09896,-0.38411 -5,-1.15234 -0.14323,-0.0521 -0.24739,-0.0911 -0.3125,-0.11719 -0.0911,-0.0391 -0.23438,-0.0911 -0.42969,-0.15625 -2.01823,-0.80729 -3.63932,-1.21093 -4.86328,-1.21093 -1.14583,0 -2.27864,0.2539 -3.39843,0.76171 -1.11979,0.49479 -2.31771,1.28256 -3.59375,2.36329"
         id="path969"
         inkscape:connector-curvature="0"
         sodipodi:nodetypes="ccscccscc" />
    </g>
  </g>
</svg>
