<?xml version="1.0" encoding="UTF-8" standalone="no"?>
<!-- Created with Inkscape (http://www.inkscape.org/) -->

<svg
   xmlns:dc="http://purl.org/dc/elements/1.1/"
   xmlns:cc="http://creativecommons.org/ns#"
   xmlns:rdf="http://www.w3.org/1999/02/22-rdf-syntax-ns#"
   xmlns:svg="http://www.w3.org/2000/svg"
   xmlns="http://www.w3.org/2000/svg"
   xmlns:sodipodi="http://sodipodi.sourceforge.net/DTD/sodipodi-0.dtd"
   xmlns:inkscape="http://www.inkscape.org/namespaces/inkscape"
   width="210mm"
   height="297mm"
   viewBox="0 0 210 297"
   version="1.1"
   id="svg8"
   inkscape:version="0.92.3 (2405546, 2018-03-11)"
   sodipodi:docname="Lasota_oko.svg">
  <defs
     id="defs2" />
  <sodipodi:namedview
     id="base"
     pagecolor="#ffffff"
     bordercolor="#666666"
     borderopacity="1.0"
     inkscape:pageopacity="0.0"
     inkscape:pageshadow="2"
     inkscape:zoom="0.7"
     inkscape:cx="385.53359"
     inkscape:cy="897.01842"
     inkscape:document-units="mm"
     inkscape:current-layer="layer1"
     showgrid="false"
     inkscape:window-width="1853"
     inkscape:window-height="1021"
     inkscape:window-x="67"
     inkscape:window-y="27"
     inkscape:window-maximized="1" />
  <metadata
     id="metadata5">
    <rdf:RDF>
      <cc:Work
         rdf:about="">
        <dc:format>image/svg+xml</dc:format>
        <dc:type
           rdf:resource="http://purl.org/dc/dcmitype/StillImage" />
        <dc:title></dc:title>
      </cc:Work>
    </rdf:RDF>
  </metadata>
  <g
     inkscape:label="Layer 1"
     inkscape:groupmode="layer"
     id="layer1">
    <path
       style="fill:#ffffff;fill-opacity:1;stroke:#000000;stroke-width:11.66585636;stroke-linejoin:round;stroke-miterlimit:4;stroke-dasharray:none;stroke-opacity:1"
       d="m 106.21109,91.683354 a 90.336303,51.439613 0 0 0 -86.155984,36.011796 89.202375,56.541063 0 0 0 86.534254,43.06083 89.202375,56.541063 0 0 0 86.1813,-42.22329 90.336303,51.439613 0 0 0 -86.55957,-36.849336 z"
       id="path815"
       inkscape:connector-curvature="0" />
    <path
       style="fill:#ffffff;fill-opacity:1;stroke:#000000;stroke-width:11;stroke-linejoin:round;stroke-miterlimit:4;stroke-dasharray:none;stroke-opacity:1"
       id="path820"
       sodipodi:type="arc"
       sodipodi:cx="105.45536"
       sodipodi:cy="131.8244"
       sodipodi:rx="35.151787"
       sodipodi:ry="35.151787"
       sodipodi:start="4.2240551"
       sodipodi:end="3.5057502"
       sodipodi:open="true"
       d="m 88.963718,100.78131 a 35.151787,35.151787 0 0 1 44.089932,9.27195 35.151787,35.151787 0 0 1 -1.24784,45.03704 35.151787,35.151787 0 0 1 -44.535695,6.8164 35.151787,35.151787 0 0 1 -14.661433,-42.60204" />
    <path
       style="fill:#000000;fill-opacity:1;stroke:#000000;stroke-width:9.48400021;stroke-linejoin:miter;stroke-miterlimit:4;stroke-dasharray:none;stroke-opacity:1"
       id="path852"
       sodipodi:type="arc"
       sodipodi:cx="116.89145"
       sodipodi:cy="122.44984"
       sodipodi:rx="20.204899"
       sodipodi:ry="18.137724"
       sodipodi:start="4.3858699"
       sodipodi:end="3.3212934"
       d="m 110.41077,105.27043 a 20.204899,18.137724 0 0 1 23.23975,7.04818 20.204899,18.137724 0 0 1 -1.46267,21.98134 20.204899,18.137724 0 0 1 -24.00916,4.51459 20.204899,18.137724 0 0 1 -11.166785,-19.60655 l 19.879545,3.24185 z"
       transform="rotate(5.2235295)" />
  </g>
</svg>
