<?xml version="1.0" encoding="UTF-8" standalone="no"?>
<!-- Created with Inkscape (http://www.inkscape.org/) -->

<svg
   xmlns:osb="http://www.openswatchbook.org/uri/2009/osb"
   xmlns:dc="http://purl.org/dc/elements/1.1/"
   xmlns:cc="http://creativecommons.org/ns#"
   xmlns:rdf="http://www.w3.org/1999/02/22-rdf-syntax-ns#"
   xmlns:svg="http://www.w3.org/2000/svg"
   xmlns="http://www.w3.org/2000/svg"
   xmlns:xlink="http://www.w3.org/1999/xlink"
   xmlns:sodipodi="http://sodipodi.sourceforge.net/DTD/sodipodi-0.dtd"
   xmlns:inkscape="http://www.inkscape.org/namespaces/inkscape"
   width="210mm"
   height="297mm"
   viewBox="0 0 210 297"
   version="1.1"
   id="svg8"
   sodipodi:docname="Lasota_logo.svg"
   inkscape:version="0.92.3 (2405546, 2018-03-11)">
  <defs
     id="defs2">
    <linearGradient
       id="linearGradient895"
       osb:paint="solid">
      <stop
         style="stop-color:#000000;stop-opacity:1;"
         offset="0"
         id="stop893" />
    </linearGradient>
  </defs>
  <sodipodi:namedview
     id="base"
     pagecolor="#ffffff"
     bordercolor="#666666"
     borderopacity="1.0"
     inkscape:pageopacity="0.0"
     inkscape:pageshadow="2"
     inkscape:zoom="0.49497475"
     inkscape:cx="34.118437"
     inkscape:cy="634.79582"
     inkscape:document-units="mm"
     inkscape:current-layer="layer1"
     showgrid="false"
     inkscape:window-width="1853"
     inkscape:window-height="1021"
     inkscape:window-x="67"
     inkscape:window-y="27"
     inkscape:window-maximized="1"
     showguides="true" />
  <metadata
     id="metadata5">
    <rdf:RDF>
      <cc:Work
         rdf:about="">
        <dc:format>image/svg+xml</dc:format>
        <dc:type
           rdf:resource="http://purl.org/dc/dcmitype/StillImage" />
      </cc:Work>
    </rdf:RDF>
  </metadata>
  <g
     inkscape:label="Layer 1"
     inkscape:groupmode="layer"
     id="layer1">
    <g
       aria-label="~"
       transform="matrix(7.8726956,0,0,12.428937,-904.84436,-11819.434)"
       style="font-style:normal;font-weight:normal;font-size:40px;line-height:1.25;font-family:sans-serif;letter-spacing:0px;word-spacing:0px;fill:none;fill-opacity:1;stroke:#000000;stroke-width:0.10109304;stroke-miterlimit:4;stroke-dasharray:none;stroke-opacity:1"
       id="flowRoot852-3" />
    <path
       style="fill:#0000ff;fill-opacity:1;stroke:none;stroke-width:27.09714317;stroke-linejoin:miter;stroke-miterlimit:4;stroke-dasharray:none;stroke-opacity:1"
       d="M 145.09403,118.21722 C 136.0975,116.42779 127.32075,112.38004 110.69829,102.35421 96.931011,94.050498 92.016487,91.580658 83.274233,88.572038 c -6.229601,-2.14391 -7.897233,-2.40139 -15.66523,-2.41874 -7.01261,-0.0157 -9.78597,0.3204 -14.34403,1.73811 -9.63336,2.99632 -17.4289,7.58755 -27.28219,16.068012 l -5.21427,4.48778 0.42994,-2.47995 C 24.264773,88.280388 32.067023,72.897608 44.154423,60.707701 60.918613,43.801347 82.49752,34.94329 106.91853,34.94329 c 24.21679,0 45.23158,8.489617 62.04161,25.063754 9.47595,9.342975 15.67852,19.028094 20.00299,31.234004 l 2.08912,5.89659 -2.56835,2.705215 c -12.9606,13.651267 -30.27421,20.983097 -43.38987,18.374367 z"
       id="path889"
       inkscape:connector-curvature="0" />
    <path
       style="fill:#000080;fill-opacity:1;stroke:none;stroke-width:27.36150932;stroke-linejoin:miter;stroke-miterlimit:4;stroke-dasharray:none;stroke-opacity:1"
       d="M 97.893611,205.11067 C 66.375587,202.62621 37.857269,182.85215 25.104775,154.64028 l -1.504943,-3.32933 3.810876,-3.32043 c 7.709444,-6.71725 16.883267,-12.10127 24.565256,-14.41711 2.202188,-0.66387 6.772417,-1.18752 10.462005,-1.1987 10.469238,-0.0317 20.123116,3.60442 39.495621,14.87612 21.13295,12.296 29.1685,15.68673 40.46194,17.07356 14.70466,1.80572 30.97664,-3.48555 44.25834,-14.39177 2.06937,-1.69925 3.72853,-2.61266 3.72332,-2.04978 -0.0201,2.15973 -5.30217,12.75259 -9.53478,19.12111 -17.42565,26.2192 -49.10834,40.77425 -82.948799,38.10672 z"
       id="path891"
       inkscape:connector-curvature="0" />
    <path
       style="fill:none;stroke:none;stroke-width:0.26458332px;stroke-linecap:butt;stroke-linejoin:miter;stroke-opacity:1"
       d="m -319.57424,276.39308 14.88698,-13.06904 23.50806,-6.4917 v 0 l 28.87677,7.56078 9.4103,7.48998 26.93835,13.89158 18.17433,4.81085 12.2944,-1.60362 13.89801,-6.41447 16.87247,-12.16177"
       id="path4551"
       inkscape:connector-curvature="0" />
    <text
       xml:space="preserve"
       style="font-style:normal;font-weight:normal;font-size:48.09524918px;line-height:1.25;font-family:sans-serif;letter-spacing:0px;word-spacing:0px;fill:#000000;fill-opacity:1;stroke:none;stroke-width:1.20238125"
       id="text4557"
       transform="translate(351.19215,-127.75482)"><textPath
         xlink:href="#path4551"
         id="textPath4559"><tspan
   style="stroke-width:1.20238125"
   id="tspan4555"><tspan
     style="stroke-width:1.20238125"
     id="tspan4553"
     y="133.14236"
     x="-247.0916">Mat-fiz</tspan></tspan></textPath></text>
  </g>
</svg>
